<svg xmlns="http://www.w3.org/2000/svg" viewBox="0 0 64 64" role="img" aria-labelledby="title desc">
  <title id="title">Logic Bloom</title>
  <desc id="desc">Four generative logic petals unfold around an open core.</desc>
  <defs>
    <linearGradient id="bloom-a" x1="12" y1="12" x2="52" y2="52" gradientUnits="userSpaceOnUse"><stop stop-color="#2563EB"/><stop offset="1" stop-color="#60A5FA"/></linearGradient>
    <linearGradient id="bloom-b" x1="52" y1="12" x2="12" y2="52" gradientUnits="userSpaceOnUse"><stop stop-color="#8B5CF6"/><stop offset="1" stop-color="#22D3EE"/></linearGradient>
    <mask id="bloom-cut"><rect width="64" height="64" fill="#fff"/><rect x="27" y="27" width="10" height="10" rx="3" fill="#000" transform="rotate(45 32 32)"/></mask>
  </defs>
  <g mask="url(#bloom-cut)">
    <path d="M31 5c1 11 7 17 17 20-4 6-9 10-16 12-6-5-10-11-11-18 2-6 5-11 10-14Z" fill="url(#bloom-a)"/>
    <path d="M59 31c-11 1-17 7-20 17-6-4-10-9-12-16 5-6 11-10 18-11 6 2 11 5 14 10Z" fill="url(#bloom-b)"/>
    <path d="M33 59c-1-11-7-17-17-20 4-6 9-10 16-12 6 5 10 11 11 18-2 6-5 11-10 14Z" fill="url(#bloom-a)"/>
    <path d="M5 33c11-1 17-7 20-17 6 4 10 9 12 16-5 6-11 10-18 11-6-2-11-5-14-10Z" fill="url(#bloom-b)"/>
  </g>
</svg>
