<svg xmlns="http://www.w3.org/2000/svg" viewBox="0 0 64 64" role="img" aria-labelledby="title desc">
  <title id="title">Adaptive Stack</title>
  <desc id="desc">Context layers shift and align into an executable structure.</desc>
  <defs>
    <linearGradient id="stack-a" x1="8" y1="12" x2="56" y2="52" gradientUnits="userSpaceOnUse"><stop stop-color="#8B5CF6"/><stop offset="1" stop-color="#2563EB"/></linearGradient>
    <linearGradient id="stack-b" x1="56" y1="12" x2="8" y2="52" gradientUnits="userSpaceOnUse"><stop stop-color="#22D3EE"/><stop offset="1" stop-color="#3B82F6"/></linearGradient>
  </defs>
  <path d="M9 13h31c8 0 14 5 15 12H24c-8 0-14-5-15-12Z" fill="url(#stack-a)"/>
  <path d="M55 26H24c-8 0-14 5-15 12h31c8 0 14-5 15-12Z" fill="url(#stack-b)"/>
  <path d="M9 39h31c8 0 14 5 15 12H24c-8 0-14-5-15-12Z" fill="url(#stack-a)"/>
  <path d="m44 26 8 6-8 6" fill="none" stroke="#E0F2FE" stroke-width="4" stroke-linecap="round" stroke-linejoin="round"/>
</svg>
