<svg xmlns="http://www.w3.org/2000/svg" viewBox="0 0 130 54" fill="none" role="img" aria-label="Code">
  <g fill="currentColor">
    <path transform="translate(0 44) scale(.0263671875 -.0263671875)" d="M774-20Q572-20 412.5 69Q253 158 160.5 328.5Q68 499 68 744Q68 990 161.5 1161.5Q255 1333 415.5 1421.5Q576 1510 774 1510Q909 1510 1024 1472.5Q1139 1435 1226.5 1363Q1314 1291 1368 1187Q1422 1083 1436 949H1072Q1065 1005 1042.5 1050.5Q1020 1096 982.5 1128Q945 1160 895 1177.5Q845 1195 783 1195Q675 1195 597 1141.5Q519 1088 477 987.5Q435 887 435 744Q435 597 477.5 496.5Q520 396 597.5 345.5Q675 295 782 295Q841 295 890 310.5Q939 326 976.5 355.5Q1014 385 1038.5 427.5Q1063 470 1072 524H1436Q1426 425 1379 328Q1332 231 1248.5 152.5Q1165 74 1046 27Q927-20 774-20Z"/>
    <path transform="translate(37.66 44) scale(.0263671875 -.0263671875)" d="M605-21Q429-21 303 51.5Q177 124 109.5 253.5Q42 383 42 555Q42 728 109.5 857.5Q177 987 303 1059.5Q429 1132 605 1132Q781 1132 907.5 1059.5Q1034 987 1101.5 857.5Q1169 728 1169 555Q1169 383 1101.5 253.5Q1034 124 907.5 51.5Q781-21 605-21ZM607 250Q672 250 716 288Q760 326 783.5 395.5Q807 465 807 557Q807 650 783.5 718Q760 786 716 823.5Q672 861 607 861Q542 861 496 823.5Q450 786 427 718Q404 650 404 557Q404 465 427 395.5Q450 326 496 288Q542 250 607 250Z"/>
    <path transform="translate(67.69 44) scale(.0263671875 -.0263671875)" d="M488-16Q365-16 263.5 48Q162 112 102 240Q42 368 42 558Q42 755 104.5 882Q167 1009 268 1070.5Q369 1132 486 1132Q574 1132 636.5 1102Q699 1072 740 1024.5Q781 977 802 926H809V1490H1165V0H814V182H802Q779 130 738 85Q697 40 635 12Q573-16 488-16ZM611 261Q676 261 722 298Q768 335 793 401.5Q818 468 818 558Q818 650 793.5 716.5Q769 783 722.5 819Q676 855 611 855Q546 855 500 818Q454 781 430.5 714.5Q407 648 407 558Q407 469 431 402Q455 335 500.5 298Q546 261 611 261Z"/>
    <path transform="translate(98.74 44) scale(.0263671875 -.0263671875)" d="M607-21Q431-21 304 48.5Q177 118 109.5 247Q42 376 42 555Q42 728 110 857.5Q178 987 302 1059.5Q426 1132 594 1132Q713 1132 812.5 1094.5Q912 1057 984.5 984.5Q1057 912 1096.5 806Q1136 700 1136 561V473H165V678H967L801 630Q801 707 778 761.5Q755 816 710 846Q665 876 598 876Q531 876 485 846Q439 816 415 762.5Q391 709 391 636V489Q391 411 418.5 354Q446 297 496.5 266.5Q547 236 613 236Q659 236 697 249Q735 262 762 287.5Q789 313 803 349L1129 340Q1109 230 1041 149Q973 68 863 23.5Q753-21 607-21Z"/>
  </g>
</svg>
